<svg id="wave" style="transform:rotate(0deg); transition: 0.3s" viewBox="0 0 1440 490" version="1.1" xmlns="http://www.w3.org/2000/svg"><defs><linearGradient id="sw-gradient-0" x1="0" x2="0" y1="1" y2="0"><stop stop-color="rgba(248, 212, 119, 1)" offset="0%"></stop><stop stop-color="rgba(248, 212, 119, 1)" offset="100%"></stop></linearGradient></defs><path style="transform:translate(0, 0px); opacity:1" fill="url(#sw-gradient-0)" d="M0,147L40,171.5C80,196,160,245,240,228.7C320,212,400,131,480,130.7C560,131,640,212,720,253.2C800,294,880,294,960,269.5C1040,245,1120,196,1200,212.3C1280,229,1360,310,1440,285.8C1520,261,1600,131,1680,81.7C1760,33,1840,65,1920,89.8C2000,114,2080,131,2160,147C2240,163,2320,180,2400,171.5C2480,163,2560,131,2640,106.2C2720,82,2800,65,2880,89.8C2960,114,3040,180,3120,220.5C3200,261,3280,278,3360,269.5C3440,261,3520,229,3600,220.5C3680,212,3760,229,3840,228.7C3920,229,4000,212,4080,204.2C4160,196,4240,196,4320,171.5C4400,147,4480,98,4560,130.7C4640,163,4720,278,4800,302.2C4880,327,4960,261,5040,261.3C5120,261,5200,327,5280,326.7C5360,327,5440,261,5520,196C5600,131,5680,65,5720,32.7L5760,0L5760,490L5720,490C5680,490,5600,490,5520,490C5440,490,5360,490,5280,490C5200,490,5120,490,5040,490C4960,490,4880,490,4800,490C4720,490,4640,490,4560,490C4480,490,4400,490,4320,490C4240,490,4160,490,4080,490C4000,490,3920,490,3840,490C3760,490,3680,490,3600,490C3520,490,3440,490,3360,490C3280,490,3200,490,3120,490C3040,490,2960,490,2880,490C2800,490,2720,490,2640,490C2560,490,2480,490,2400,490C2320,490,2240,490,2160,490C2080,490,2000,490,1920,490C1840,490,1760,490,1680,490C1600,490,1520,490,1440,490C1360,490,1280,490,1200,490C1120,490,1040,490,960,490C880,490,800,490,720,490C640,490,560,490,480,490C400,490,320,490,240,490C160,490,80,490,40,490L0,490Z"></path></svg>