<svg id="wave" style="transform:rotate(0deg); transition: 0.3s" viewBox="0 0 1440 230" version="1.1" xmlns="http://www.w3.org/2000/svg"><defs><linearGradient id="sw-gradient-0" x1="0" x2="0" y1="1" y2="0"><stop stop-color="rgba(248, 212, 119, 1)" offset="0%"></stop><stop stop-color="rgba(248, 212, 119, 1)" offset="100%"></stop></linearGradient></defs><path style="transform:translate(0, 0px); opacity:1" fill="url(#sw-gradient-0)" d="M0,69L48,84.3C96,100,192,130,288,122.7C384,115,480,69,576,69C672,69,768,115,864,126.5C960,138,1056,115,1152,107.3C1248,100,1344,107,1440,99.7C1536,92,1632,69,1728,80.5C1824,92,1920,138,2016,161C2112,184,2208,184,2304,161C2400,138,2496,92,2592,69C2688,46,2784,46,2880,57.5C2976,69,3072,92,3168,115C3264,138,3360,161,3456,153.3C3552,146,3648,107,3744,107.3C3840,107,3936,146,4032,145.7C4128,146,4224,107,4320,76.7C4416,46,4512,23,4608,11.5C4704,0,4800,0,4896,0C4992,0,5088,0,5184,15.3C5280,31,5376,61,5472,76.7C5568,92,5664,92,5760,95.8C5856,100,5952,107,6048,111.2C6144,115,6240,115,6336,111.2C6432,107,6528,100,6624,92C6720,84,6816,77,6864,72.8L6912,69L6912,230L6864,230C6816,230,6720,230,6624,230C6528,230,6432,230,6336,230C6240,230,6144,230,6048,230C5952,230,5856,230,5760,230C5664,230,5568,230,5472,230C5376,230,5280,230,5184,230C5088,230,4992,230,4896,230C4800,230,4704,230,4608,230C4512,230,4416,230,4320,230C4224,230,4128,230,4032,230C3936,230,3840,230,3744,230C3648,230,3552,230,3456,230C3360,230,3264,230,3168,230C3072,230,2976,230,2880,230C2784,230,2688,230,2592,230C2496,230,2400,230,2304,230C2208,230,2112,230,2016,230C1920,230,1824,230,1728,230C1632,230,1536,230,1440,230C1344,230,1248,230,1152,230C1056,230,960,230,864,230C768,230,672,230,576,230C480,230,384,230,288,230C192,230,96,230,48,230L0,230Z"></path></svg>